<?xml version="1.0" encoding="utf-8"?>
<svg version="1.1" id="Calque_1" xmlns="http://www.w3.org/2000/svg" xmlns:xlink="http://www.w3.org/1999/xlink" x="0px" y="0px"
	 viewBox="0 0 19.4 23.1" style="enable-background:new 0 0 19.4 23.1;" xml:space="preserve">
<style type="text/css">
	.st0{fill:#BABABA;}
	.st1{fill:#4AC422;}
</style>
<g>
	<path class="st0" d="M14.7,15.4c-0.3-0.3-0.7-0.5-1-0.7c-0.5-0.3-1.3-0.7-1.9-0.3c-0.2,0.1-0.4,0.4-0.5,0.5
		c-0.2,0.2-0.5,0.5-0.8,0.6c-1.3,0.7-3,0.4-4.1-0.6c-0.6-0.6-1-1.6-1-2.5c0-0.7,0.3-1.4,0.7-2c0.2-0.2,0.4-0.4,0.6-0.7
		C6.9,9.6,7,9.4,7,9.1C7,8.7,6.8,8.3,6.6,8C6.5,7.6,6.3,7.3,6.1,7C5.9,6.7,5.6,6.4,5.3,6.3C5.1,6.2,5,6.2,4.8,6.3
		C4.6,6.3,4.4,6.5,4.3,6.6C3.6,7.1,2.9,7.7,2.6,8.5C2,9.7,2.3,11.1,2.8,12.3c0.6,1.4,1.5,2.6,2.6,3.6c0.6,0.6,1.4,1.2,2.1,1.7
		c1,0.6,2.2,1.1,3.3,1.3c0.8,0.1,1.7,0,2.4-0.4c0.3-0.2,0.6-0.4,0.8-0.6c0.3-0.3,0.6-0.6,0.8-0.9c0.2-0.2,0.4-0.4,0.4-0.6
		C15.3,15.9,15,15.6,14.7,15.4z"/>
	<polygon class="st1" points="12.8,8.1 12.8,12.1 10.5,12.1 10.5,8.1 8.3,8.1 11.6,3 14.8,8.1 	"/>
</g>
</svg>
