<?xml version="1.0" encoding="utf-8"?>
<!-- Generator: Adobe Illustrator 22.0.1, SVG Export Plug-In . SVG Version: 6.00 Build 0)  -->
<svg version="1.1" id="Layer_1" xmlns="http://www.w3.org/2000/svg" xmlns:xlink="http://www.w3.org/1999/xlink" x="0px" y="0px"
	 viewBox="0 0 44 44" style="enable-background:new 0 0 44 44;" xml:space="preserve">
<style type="text/css">
	.st0{fill:#8C8C8C;}
</style>
<g>
	<path class="st0" d="M12.8,12.8c-5.1,5.1-5.1,13.3,0,18.4s13.3,5.1,18.4,0s5.1-13.3,0-18.4S17.9,7.7,12.8,12.8z M30.6,30.6
		c-4.7,4.7-12.4,4.7-17.2,0s-4.7-12.4,0-17.2c4.7-4.7,12.4-4.7,17.2,0S35.3,25.9,30.6,30.6z"/>
	<path class="st0" d="M27.2,16.8l-4.9,4.9l-5.2-5.2c-0.2-0.2-0.4-0.2-0.6,0c-0.2,0.2-0.2,0.4,0,0.6l5.2,5.2l-4.9,4.9
		c-0.2,0.2-0.2,0.4,0,0.6s0.4,0.2,0.6,0l4.9-4.9l4.6,4.6c0.2,0.2,0.4,0.2,0.6,0s0.2-0.4,0-0.6l-4.6-4.6l4.9-4.9
		c0.2-0.2,0.2-0.4,0-0.6C27.7,16.6,27.4,16.6,27.2,16.8z"/>
</g>
</svg>
