<?xml version="1.0" encoding="utf-8"?>
<svg version="1.1" id="Calque_1" xmlns="http://www.w3.org/2000/svg" xmlns:xlink="http://www.w3.org/1999/xlink" x="0px" y="0px"
	 viewBox="0 0 19.4 23.1" style="enable-background:new 0 0 19.4 23.1;" xml:space="preserve">
<style type="text/css">
	.st0{fill:#BABABA;}
	.st1{fill:#FC5624;}
</style>
<g>
	<path class="st0" d="M14.8,15c-0.3-0.3-0.7-0.5-1-0.7c-0.5-0.3-1.3-0.7-1.9-0.3c-0.2,0.1-0.4,0.4-0.5,0.5c-0.2,0.2-0.5,0.5-0.8,0.6
		c-1.3,0.7-3,0.4-4.1-0.6c-0.6-0.6-1-1.6-1-2.5c0-0.7,0.3-1.4,0.7-2c0.2-0.2,0.4-0.4,0.6-0.7C6.9,9.3,7,9.1,7,8.8
		C7,8.4,6.9,8,6.7,7.7C6.6,7.3,6.4,7,6.2,6.7C6,6.4,5.7,6.1,5.3,6C5.2,5.9,5,5.9,4.9,5.9C4.7,6,4.5,6.1,4.3,6.3
		C3.7,6.8,3,7.4,2.7,8.1C2.1,9.4,2.3,10.8,2.8,12c0.6,1.4,1.5,2.6,2.6,3.6c0.6,0.6,1.4,1.2,2.1,1.7c1,0.6,2.2,1.1,3.3,1.3
		c0.8,0.1,1.7,0,2.4-0.4c0.3-0.2,0.6-0.4,0.8-0.6c0.3-0.3,0.6-0.6,0.8-0.9c0.2-0.2,0.4-0.4,0.4-0.6C15.3,15.6,15,15.3,14.8,15z"/>
	<polygon class="st1" points="10.5,6.7 10.5,2.7 12.7,2.7 12.7,6.7 14.9,6.7 11.6,11.8 8.4,6.7 	"/>
</g>
</svg>
