<?xml version="1.0" encoding="iso-8859-1"?>
<!-- Generator: Adobe Illustrator 18.0.0, SVG Export Plug-In . SVG Version: 6.00 Build 0)  -->
<!DOCTYPE svg PUBLIC "-//W3C//DTD SVG 1.1//EN" "http://www.w3.org/Graphics/SVG/1.1/DTD/svg11.dtd">
<svg version="1.1" id="Capa_1" xmlns="http://www.w3.org/2000/svg" xmlns:xlink="http://www.w3.org/1999/xlink" x="0px" y="0px"
	 viewBox="0 0 53.943 53.943" style="enable-background:new 0 0 53.943 53.943;" xml:space="preserve">
<g>
	<g>
		<path style="fill:#52C306;" d="M52.48,41.377c-1.898-3.587-8.899-7.69-8.899-7.69c-1.584-0.903-3.495-1.004-4.399,0.606
			c0,0-2.274,2.728-2.853,3.12c-2.643,1.791-5.091,1.722-7.562-0.75l-5.743-5.743l-5.743-5.743c-2.472-2.472-2.541-4.919-0.75-7.562
			c0.392-0.579,3.12-2.853,3.12-2.853c1.609-0.904,1.509-2.815,0.606-4.399c0,0-4.103-7.001-7.69-8.899
			c-1.526-0.808-3.4-0.526-4.621,0.695L5.408,4.694c-8.045,8.045-4.084,17.129,3.961,25.174l7.353,7.353l7.353,7.353
			c8.045,8.045,17.129,12.007,25.174,3.961l2.537-2.537C53.006,44.777,53.288,42.903,52.48,41.377z"/>
		<path style="fill:#388F04;" d="M39.659,53.942c-1.054,0-2.128-0.127-3.223-0.38c-4.132-0.956-8.529-3.742-13.069-8.282
			L8.662,30.575c-4.54-4.54-7.327-8.938-8.282-13.069C-0.767,12.549,0.687,8,4.7,3.987L7.237,1.45
			c1.541-1.541,3.87-1.891,5.795-0.872c3.795,2.008,7.912,8.98,8.085,9.276c0.734,1.288,0.964,2.61,0.652,3.733
			c-0.234,0.844-0.768,1.531-1.545,1.994c-1.22,1.021-2.646,2.286-2.871,2.596c-1.601,2.363-1.413,4.246,0.632,6.291l11.487,11.486
			c2.045,2.044,3.927,2.232,6.294,0.629c0.307-0.222,1.572-1.647,2.592-2.867c0.463-0.778,1.151-1.312,1.996-1.546
			c1.121-0.309,2.443-0.081,3.721,0.646c0.306,0.18,7.279,4.296,9.287,8.092l0,0c1.02,1.925,0.669,4.254-0.872,5.796l-2.537,2.536
			C46.828,52.369,43.376,53.942,39.659,53.942z M10.721,2.002c-0.757,0-1.503,0.296-2.07,0.862L6.114,5.401
			c-3.542,3.542-4.781,7.354-3.786,11.654c0.87,3.762,3.477,7.834,7.748,12.105l14.705,14.705c4.271,4.271,8.344,6.878,12.105,7.748
			c4.302,0.992,8.113-0.244,11.655-3.787l2.537-2.536c0.916-0.917,1.125-2.302,0.519-3.446l0,0
			c-1.743-3.294-8.453-7.256-8.521-7.296c-0.777-0.442-1.597-0.614-2.186-0.45c-0.36,0.1-0.633,0.323-0.835,0.683l-0.104,0.151
			c-0.711,0.853-2.433,2.883-3.061,3.308c-3.148,2.134-6.119,1.84-8.83-0.871L16.572,25.883c-2.71-2.711-3.003-5.682-0.871-8.83
			c0.426-0.629,2.456-2.35,3.309-3.062l0.151-0.104c0.359-0.202,0.583-0.475,0.683-0.835c0.163-0.588-0.007-1.409-0.457-2.197
			c-0.034-0.057-3.996-6.767-7.29-8.51C11.661,2.114,11.189,2.002,10.721,2.002z"/>
	</g>
	<path style="fill:#52C306;" d="M29.937,25.005c-0.552,0-1-0.447-1-1v-12c0-0.553,0.448-1,1-1s1,0.447,1,1v12
		C30.937,24.558,30.489,25.005,29.937,25.005z"/>
	<path style="fill:#52C306;" d="M41.937,25.005h-12c-0.552,0-1-0.447-1-1s0.448-1,1-1h12c0.552,0,1,0.447,1,1
		S42.489,25.005,41.937,25.005z"/>
	<path style="fill:#52C306;" d="M29.937,25.005c-0.256,0-0.512-0.098-0.707-0.293c-0.391-0.391-0.391-1.023,0-1.414l17-17
		c0.391-0.391,1.023-0.391,1.414,0s0.391,1.023,0,1.414l-17,17C30.449,24.907,30.193,25.005,29.937,25.005z"/>
	<path style="fill:#388F04;" d="M39.673,42.608c-0.034,0-0.069-0.002-0.104-0.005c-6.895-0.716-11.41-5.097-11.599-5.283
		c-0.393-0.387-0.397-1.019-0.011-1.412c0.387-0.394,1.021-0.4,1.414-0.013c0.042,0.04,4.228,4.077,10.402,4.718
		c0.549,0.058,0.949,0.549,0.892,1.099C40.613,42.225,40.179,42.608,39.673,42.608z"/>
	<path style="fill:#388F04;" d="M17.67,26.608c-0.223,0-0.448-0.075-0.634-0.229c-0.23-0.188-5.637-4.715-6.359-11.668
		c-0.057-0.55,0.342-1.041,0.892-1.099c0.553-0.042,1.041,0.344,1.098,0.892c0.635,6.12,5.592,10.291,5.642,10.332
		c0.425,0.353,0.485,0.982,0.134,1.408C18.244,26.484,17.958,26.608,17.67,26.608z"/>
</g>
<g>
</g>
<g>
</g>
<g>
</g>
<g>
</g>
<g>
</g>
<g>
</g>
<g>
</g>
<g>
</g>
<g>
</g>
<g>
</g>
<g>
</g>
<g>
</g>
<g>
</g>
<g>
</g>
<g>
</g>
</svg>
