<?xml version="1.0" encoding="iso-8859-1"?>
<!-- Generator: Adobe Illustrator 19.0.0, SVG Export Plug-In . SVG Version: 6.00 Build 0)  -->
<svg version="1.1" id="Capa_1" xmlns="http://www.w3.org/2000/svg" xmlns:xlink="http://www.w3.org/1999/xlink" x="0px" y="0px"
	 viewBox="0 0 512 512" style="enable-background:new 0 0 512 512;" xml:space="preserve">
<g>
	<path style="fill:#303C42;" d="M248.458,210.208c2.083,2.083,4.813,3.125,7.542,3.125c2.729,0,5.458-1.042,7.542-3.125
		l109.792-109.792V160c0,5.896,4.771,10.667,10.667,10.667c5.896,0,10.667-4.771,10.667-10.667V74.667
		C394.667,68.771,389.896,64,384,64h-85.333C292.771,64,288,68.771,288,74.667c0,5.896,4.771,10.667,10.667,10.667h59.583
		L256,187.583L135.542,67.125c-4.167-4.167-10.917-4.167-15.083,0c-4.167,4.167-4.167,10.917,0,15.083L248.458,210.208z"/>
	<path style="fill:#303C42;" d="M503.28,342.354c-66.029-69.438-153.852-107.688-247.291-107.688
		c-93.428,0-181.251,38.25-247.27,107.688c-11.626,12.229-11.626,32.115,0,44.333l49.173,51.74
		c11.564,12.146,32.087,12.146,43.651,0c16.45-17.302,35.15-31.563,55.486-42.333c10.189-5.25,16.773-16.302,16.679-26.75
		l7.438-56.063c53.59-17.135,96.626-17.146,149.716-0.01l7.334,54.667c0,11.823,6.272,22.615,16.523,28.25
		c20.44,10.823,39.14,25.083,55.601,42.375c5.782,6.094,13.533,9.438,21.826,9.438c8.282,0,16.033-3.344,21.815-9.427l49.319-51.875
		C514.907,374.469,514.907,354.583,503.28,342.354z"/>
</g>
<path style="fill:#E53935;" d="M487.82,371.99l-49.318,51.885c-3.448,3.615-9.293,3.604-12.72-0.01
	c-18.054-18.969-38.598-34.625-60.935-46.448c-3.323-1.833-5.313-5.375-5.407-10.885l-8.314-62.688
	c-0.531-4.01-3.292-7.375-7.115-8.688c-31.118-10.656-59.414-15.979-87.792-15.979c-28.368,0-56.809,5.323-88.198,15.969
	c-3.844,1.302-6.615,4.677-7.147,8.698l-8.407,64.094c0,3.896-2.094,7.594-5.313,9.25c-22.482,11.906-43.026,27.563-61.07,46.531
	c-3.438,3.604-9.293,3.594-12.731,0.01L24.18,371.99c-3.855-4.042-3.855-10.885,0-14.927C86.136,291.885,168.458,256,255.99,256
	s169.865,35.885,231.83,101.063C491.675,361.104,491.675,367.948,487.82,371.99z"/>
<path style="opacity:0.1;enable-background:new    ;" d="M152.229,334.693c-14.717,8.169-28.566,18.103-41.37,29.663
	C97.5,376.414,77.189,376.138,65.1,362.806l-21.715-23.945c-6.529,5.88-13.018,11.826-19.161,18.288
	c-3.854,4.042-3.854,10.885,0,14.927l49.173,51.74c3.438,3.583,9.293,3.594,12.73-0.01c18.044-18.969,38.589-34.625,61.07-46.531
	c3.219-1.656,5.313-5.354,5.313-9.25l5.406-41.215C156.262,330.296,154.01,333.732,152.229,334.693z"/>
<path style="opacity:0.1;enable-background:new    ;" d="M487.865,357.148c-6.128-6.445-12.605-12.375-19.117-18.241l-21.816,24.055
	c-12.083,13.323-32.385,13.602-45.736,1.548c-12.801-11.556-26.621-21.475-41.247-29.589c-1.792-1.036-3.975-3.915-5.62-7.186
	l5.156,38.882c0.094,5.51,2.083,9.052,5.406,10.885c22.336,11.823,42.88,27.479,60.935,46.448c3.427,3.615,9.272,3.625,12.72,0.01
	l49.319-51.885C491.719,368.034,491.719,361.19,487.865,357.148z"/>
<linearGradient id="SVGID_1_" gradientUnits="userSpaceOnUse" x1="-43.5575" y1="638.0458" x2="-22.9835" y2="628.4534" gradientTransform="matrix(21.3333 0 0 -21.3333 996.3333 13791.667)">
	<stop  offset="0" style="stop-color:#FFFFFF;stop-opacity:0.2"/>
	<stop  offset="1" style="stop-color:#FFFFFF;stop-opacity:0"/>
</linearGradient>
<path style="fill:url(#SVGID_1_);" d="M248.458,210.208c2.083,2.083,4.813,3.125,7.542,3.125c2.729,0,5.458-1.042,7.542-3.125
	l109.792-109.792V160c0,5.896,4.771,10.667,10.667,10.667c5.896,0,10.667-4.771,10.667-10.667V74.667
	C394.667,68.771,389.896,64,384,64h-85.333C292.771,64,288,68.771,288,74.667c0,5.896,4.771,10.667,10.667,10.667h59.583
	L256,187.583L135.542,67.125c-4.167-4.167-10.917-4.167-15.083,0c-4.167,4.167-4.167,10.917,0,15.083L248.458,210.208z
	 M503.28,342.354c-66.029-69.438-153.852-107.688-247.29-107.688c-93.428,0-181.251,38.25-247.27,107.688
	c-11.626,12.229-11.626,32.115,0,44.333l49.172,51.74c11.565,12.146,32.087,12.146,43.652,0
	c16.449-17.302,35.15-31.563,55.486-42.333c10.189-5.25,16.772-16.302,16.678-26.75l7.439-56.063
	c53.59-17.135,96.626-17.146,149.716-0.01l7.335,54.667c0,11.823,6.271,22.615,16.522,28.25c20.44,10.823,39.141,25.083,55.6,42.375
	c5.783,6.094,13.534,9.438,21.827,9.438c8.281,0,16.033-3.344,21.815-9.427l49.318-51.875
	C514.906,374.469,514.906,354.583,503.28,342.354z"/>
<g>
</g>
<g>
</g>
<g>
</g>
<g>
</g>
<g>
</g>
<g>
</g>
<g>
</g>
<g>
</g>
<g>
</g>
<g>
</g>
<g>
</g>
<g>
</g>
<g>
</g>
<g>
</g>
<g>
</g>
</svg>
