<?xml version="1.0" encoding="UTF-8"?>
<svg width="100px" height="101px" viewBox="0 0 100 101" version="1.1" xmlns="http://www.w3.org/2000/svg" xmlns:xlink="http://www.w3.org/1999/xlink">
    <title>answered</title>
    <g id="Page-1" stroke="none" stroke-width="1" fill="none" fill-rule="evenodd">
        <g id="answered" fill-rule="nonzero">
            <path d="M97.2368078,73.7573436 L83.2905659,59.9781913 C78.3097652,55.0570654 69.842404,57.025708 67.8500837,63.4229793 C66.3558435,67.8521848 61.3750428,70.3127478 56.8923222,69.3283304 C46.9307208,66.8677674 33.4825589,54.0728403 30.9921586,43.738476 C29.4979184,39.3092705 32.4863988,34.3881447 36.9691194,32.9119991 C43.4441603,30.9435488 45.4364806,22.5776349 40.4556799,17.6565091 L26.5094379,3.87735671 C22.5247974,0.432568619 16.5478366,0.432568619 13.0612761,3.87735671 L3.59775474,13.2274958 C-5.86576658,23.0697475 4.59391488,49.1517144 28.0036782,72.2810059 C51.4134414,95.4102973 77.8116851,106.236966 87.7732865,96.3945225 L97.2368078,87.0443834 C100.723563,83.1074827 100.723563,77.2021317 97.2368078,73.7573436 Z" id="Path" fill="#BABABA"></path>
            <g id="correct" transform="translate(50.000000, 0.000000)" fill="#3FBB20">
                <path d="M19.1373542,38.1078984 C18.6602871,38.5877691 18.0094012,38.8555061 17.3332835,38.8555061 C16.6571658,38.8555061 16.0062799,38.5877691 15.5292128,38.1078984 L1.12141148,23.6977609 C-0.373803828,22.2025456 -0.373803828,19.7779605 1.12141148,18.2855488 L2.92548218,16.4810108 C4.42116483,14.9857955 6.84294629,14.9857955 8.3381616,16.4810108 L17.3332835,25.4765999 L41.6394102,1.17000598 C43.1350927,-0.32520933 45.5592105,-0.32520933 47.0520896,1.17000598 L48.8561603,2.97454402 C50.3513756,4.46975933 50.3513756,6.89387703 48.8561603,8.3867561 L19.1373542,38.1078984 Z" id="Path"></path>
            </g>
        </g>
    </g>
</svg>