<?xml version="1.0" encoding="UTF-8"?>
<svg width="101px" height="100px" viewBox="0 0 101 100" version="1.1" xmlns="http://www.w3.org/2000/svg" xmlns:xlink="http://www.w3.org/1999/xlink">
    <title>miss</title>
    <g id="Page-1" stroke="none" stroke-width="1" fill="none" fill-rule="evenodd">
        <g id="miss" fill-rule="nonzero">
            <path d="M97.2368078,72.7573436 L83.2905659,58.9781913 C78.3097652,54.0570654 69.842404,56.025708 67.8500837,62.4229793 C66.3558435,66.8521848 61.3750428,69.3127478 56.8923222,68.3283304 C46.9307208,65.8677674 33.4825589,53.0728403 30.9921586,42.738476 C29.4979184,38.3092705 32.4863988,33.3881447 36.9691194,31.9119991 C43.4441603,29.9435488 45.4364806,21.5776349 40.4556799,16.6565091 L26.5094379,2.87735671 C22.5247974,-0.567431381 16.5478366,-0.567431381 13.0612761,2.87735671 L3.59775474,12.2274958 C-5.86576658,22.0697475 4.59391488,48.1517144 28.0036782,71.2810059 C51.4134414,94.4102973 77.8116851,105.236966 87.7732865,95.3945225 L97.2368078,86.0443834 C100.723563,82.1074827 100.723563,76.2021317 97.2368078,72.7573436 Z" id="Path" fill="#BABABA"></path>
            <path d="M66.7662163,3.44155408 L66.7662163,18.9285474 C66.7662163,22.7299831 69.8478888,25.8116556 73.6493245,25.8116556 L78.8116556,25.8116556 C79.7620144,25.8116556 80.5324326,25.0412374 80.5324326,24.0908785 L80.5324326,17.6775425 C80.5323655,16.9949918 80.9357234,16.3769198 81.5605327,16.1021677 C82.1853422,15.8274156 82.9134823,15.9479256 83.4164549,16.4093298 L99.7982523,31.4265511 C100.15364,31.7524721 100.355969,32.2125555 100.355969,32.6947637 C100.355969,33.1769719 100.15364,33.6370554 99.7982523,33.9629764 L83.4164549,48.9801976 C82.9134823,49.441602 82.1853422,49.5621118 81.5605327,49.2873598 C80.9357234,49.0126076 80.5323655,48.3945356 80.5324326,47.7119849 L80.5324326,41.2986489 C80.5324326,40.3482901 79.7620144,39.5778719 78.8116556,39.5778719 L70.2077704,39.5778719 C60.7041812,39.5778719 53,31.8736907 53,22.3701015 L53,3.44155408 C53,1.54083624 54.5408362,0 56.4415541,0 L63.3246622,0 C65.2253801,0 66.7662163,1.54083624 66.7662163,3.44155408 Z" id="Shape" fill="#EE481B"></path>
        </g>
    </g>
</svg>