<?xml version="1.0" encoding="UTF-8"?>
<svg width="101px" height="101px" viewBox="0 0 101 101" version="1.1" xmlns="http://www.w3.org/2000/svg" xmlns:xlink="http://www.w3.org/1999/xlink">
    <title>out</title>
    <g id="Page-1" stroke="none" stroke-width="1" fill="none" fill-rule="evenodd">
        <g id="out" transform="translate(0.539178, 1.000000)">
            <path d="M97.2368078,72.7573436 L83.2905659,58.9781913 C78.3097652,54.0570654 69.842404,56.025708 67.8500837,62.4229793 C66.3558435,66.8521848 61.3750428,69.3127478 56.8923222,68.3283304 C46.9307208,65.8677674 33.4825589,53.0728403 30.9921586,42.738476 C29.4979184,38.3092705 32.4863988,33.3881447 36.9691194,31.9119991 C43.4441603,29.9435488 45.4364806,21.5776349 40.4556799,16.6565091 L26.5094379,2.87735671 C22.5247974,-0.567431381 16.5478366,-0.567431381 13.0612761,2.87735671 L3.59775474,12.2274958 C-5.86576658,22.0697475 4.59391488,48.1517144 28.0036782,71.2810059 C51.4134414,94.4102973 77.8116851,105.236966 87.7732865,95.3945225 L97.2368078,86.0443834 C100.723563,82.1074827 100.723563,76.2021317 97.2368078,72.7573436 Z" id="Path" fill="#BABABA" fill-rule="nonzero"></path>
            <path d="M71.4608217,-0.971825316 L55.5777265,25.5 L87.3439169,25.5 L71.4608217,-0.971825316 Z" id="Triangle" stroke="#EE481B" fill="#EE481B" stroke-linejoin="round"></path>
            <rect id="Rectangle" fill="#EE481B" x="66.4608217" y="23" width="10" height="22" rx="3"></rect>
        </g>
    </g>
</svg>