<?xml version="1.0" encoding="iso-8859-1"?>
<!-- Generator: Adobe Illustrator 19.0.0, SVG Export Plug-In . SVG Version: 6.00 Build 0)  -->
<svg version="1.1" id="Capa_1" xmlns="http://www.w3.org/2000/svg" xmlns:xlink="http://www.w3.org/1999/xlink" x="0px" y="0px"
	 viewBox="0 0 512 512" style="enable-background:new 0 0 512 512;" xml:space="preserve">
<g>
	<g>
		<path d="M256,181c-41.353,0-75,33.647-75,75c0,41.353,33.647,75,75,75c41.353,0,75-33.647,75-75C331,214.647,297.353,181,256,181z
			"/>
	</g>
</g>
<g>
	<g>
		<path d="M512,298.305v-84.609l-69.408-13.667c-3.794-12.612-8.833-24.771-15.103-36.343l38.73-58.096l-59.81-59.81l-58.096,38.73
			c-11.572-6.27-23.73-11.309-36.343-15.103L298.305,0h-84.609l-13.667,69.408c-12.612,3.794-24.771,8.833-36.343,15.103
			L105.59,45.78l-59.81,59.81l38.73,58.096c-6.27,11.572-11.309,23.73-15.103,36.343L0,213.695v84.609l69.408,13.667
			c3.794,12.612,8.833,24.771,15.103,36.343L45.78,406.41l59.81,59.81l58.096-38.73c11.572,6.27,23.73,11.309,36.343,15.103
			L213.695,512h84.609l13.667-69.408c12.612-3.794,24.771-8.833,36.343-15.103l58.096,38.73l59.81-59.81l-38.73-58.096
			c6.27-11.572,11.309-23.73,15.103-36.343L512,298.305z M256,361c-57.891,0-105-47.109-105-105s47.109-105,105-105
			s105,47.109,105,105S313.891,361,256,361z"/>
	</g>
</g>
<g>
</g>
<g>
</g>
<g>
</g>
<g>
</g>
<g>
</g>
<g>
</g>
<g>
</g>
<g>
</g>
<g>
</g>
<g>
</g>
<g>
</g>
<g>
</g>
<g>
</g>
<g>
</g>
<g>
</g>
</svg>
