<?xml version="1.0" encoding="UTF-8"?>
<svg width="100px" height="100px" viewBox="0 0 100 100" version="1.1" xmlns="http://www.w3.org/2000/svg" xmlns:xlink="http://www.w3.org/1999/xlink">
    <title>voice</title>
    <g id="Page-1" stroke="none" stroke-width="1" fill="none" fill-rule="evenodd">
        <g id="voice" fill-rule="nonzero">
            <path d="M97.2368078,72.7573436 L83.2905659,58.9781913 C78.3097652,54.0570654 69.842404,56.025708 67.8500837,62.4229793 C66.3558435,66.8521848 61.3750428,69.3127478 56.8923222,68.3283304 C46.9307208,65.8677674 33.4825589,53.0728403 30.9921586,42.738476 C29.4979184,38.3092705 32.4863988,33.3881447 36.9691194,31.9119991 C43.4441603,29.9435488 45.4364806,21.5776349 40.4556799,16.6565091 L26.5094379,2.87735671 C22.5247974,-0.567431381 16.5478366,-0.567431381 13.0612761,2.87735671 L3.59775474,12.2274958 C-5.86576658,22.0697475 4.59391488,48.1517144 28.0036782,71.2810059 C51.4134414,94.4102973 77.8116851,105.236966 87.7732865,95.3945225 L97.2368078,86.0443834 C100.723563,82.1074827 100.723563,76.2021317 97.2368078,72.7573436 Z" id="Path" fill="#BABABA"></path>
            <g id="chat" transform="translate(60.000000, 0.000000)" fill="#3FBB20">
                <path d="M35.7043515,0.000167364017 L4.28451883,0.000167364017 C1.91824268,0.000167364017 0,1.91841004 0,4.28468619 L0,27.1354812 C0,29.5017573 1.91824268,31.42 4.28451883,31.42 L9.35456067,31.42 L8.5776569,38.4037657 C8.49104603,39.1877824 9.05640167,39.8934728 9.84041841,39.9800837 C10.245272,40.0247699 10.6499582,39.894477 10.9527197,39.6220084 L20.0672803,31.42 L35.7043515,31.42 C38.0706276,31.42 39.9888703,29.5017573 39.9888703,27.1354812 L39.9888703,4.28468619 C39.9888703,1.91841004 38.0706276,0.000167364017 35.7043515,0.000167364017 Z M37.1325523,27.1354812 C37.1325523,27.9242678 36.4930544,28.563682 35.7042678,28.563682 L19.5188285,28.563682 C19.1659414,28.5637657 18.8256067,28.6945607 18.5633473,28.9307113 L11.8309623,34.9904603 L12.3693724,30.1503766 C12.4569038,29.3665272 11.8924686,28.6600837 11.1085356,28.5724686 C11.0558159,28.5666109 11.0028452,28.5635983 10.9497908,28.563682 L4.28451883,28.563682 C3.49573222,28.563682 2.85631799,27.9242678 2.85631799,27.1354812 L2.85631799,4.28468619 C2.85631799,3.49589958 3.49573222,2.85648536 4.28451883,2.85648536 L35.7043515,2.85648536 C36.4931381,2.85648536 37.1325523,3.49589958 37.1325523,4.28468619 L37.1325523,27.1354812 L37.1325523,27.1354812 Z" id="Shape"></path>
            </g>
        </g>
    </g>
</svg>