<svg xmlns="http://www.w3.org/2000/svg" viewBox="0 0 486 168">
    <g transform="translate(207 24)">
      <rect width="9" height="90" x="270" y="6" fill="#424242" rx="4.5"/>
      <rect width="9" height="90" x="249" y="6" fill="#424242" rx="4.5"/>
      <path fill="#424242" d="M228 44.58V40.5a4.5 4.5 0 119 0v50.98a4.5 4.5 0 11-9 0v-4.07a30 30 0 110-42.85zM207 87a21 21 0 100-42 21 21 0 000 42zM171.57 44.43a30.5 30.5 0 100 43.14 4.5 4.5 0 00-6.37-6.37 21.5 21.5 0 110-30.4 4.5 4.5 0 006.37-6.37zM102 41.65v-1.14a4.5 4.5 0 10-9 0v50.98a4.5 4.5 0 109 0V65.08c.27-12.3 5.98-20.05 14.91-20.05a4.5 4.5 0 000-9c-6 0-11.03 2.05-14.91 5.62z"/>
      <rect width="9" height="60" x="72" y="36" fill="#424242" rx="4.5"/>
      <circle cx="76.5" cy="10.5" r="10.5" fill="#2AC420"/>
      <path fill="#424242" d="M51 44.58V40.5a4.5 4.5 0 119 0v50.98a4.5 4.5 0 11-9 0v-4.07a30 30 0 110-42.85zM30 87a21 21 0 100-42 21 21 0 000 42z"/>
    </g>
    <path fill="#2AC420" d="M84 168c-46.2 0-84-37.8-84-84S37.8 0 84 0s84 37.8 84 84-37.8 84-84 84zm0-156c-39.6 0-72 32.4-72 72s32.4 72 72 72 72-32.4 72-72-32.4-72-72-72zm38.34 88.62a28.45 28.45 0 00-6.63-4.32c-3.48-1.65-8.62-4.3-12.44-1.82-1.32.83-2.32 2.32-3.48 3.32a20.31 20.31 0 01-5.14 3.98c-8.46 4.3-19.57 2.48-26.53-3.98a22.72 22.72 0 01-6.3-15.92 22.49 22.49 0 014.47-12.77c1.17-1.5 2.66-2.82 3.98-4.31a6.52 6.52 0 002.16-4.81c0-2.49-1.16-4.8-2.16-7.13-.99-2.16-1.99-4.48-3.48-6.3-1.32-1.83-3.31-3.82-5.47-4.65-1-.33-1.99-.5-2.98-.16-1.33.33-2.33 1.33-3.32 2.15-4.31 3.32-8.79 7.13-10.95 12.11-3.64 7.96-1.99 17.08 1.17 24.87 3.64 8.8 9.61 16.75 16.58 23.22a80.78 80.78 0 0013.76 11.1c6.47 3.99 13.93 7.3 21.56 8.13 5.3.67 10.94-.16 15.59-2.65a26.44 26.44 0 005.47-4.15 57.86 57.86 0 005.3-5.8c1-1.16 2.33-2.32 2.5-4.14.16-2.33-2-4.48-3.66-5.97z"/>
</svg>