<?xml version="1.0" encoding="utf-8"?>
<svg version="1.1" id="Calque_1" xmlns="http://www.w3.org/2000/svg" xmlns:xlink="http://www.w3.org/1999/xlink" x="0px" y="0px"
	 viewBox="0 0 20 20.2" style="enable-background:new 0 0 20 20.2;" xml:space="preserve">
<style type="text/css">
	.st0{fill:#424242;}
</style>
<path class="st0" d="M10.3,2.7"/>
<path class="st0" d="M17.6,14.3c-0.1-0.2-0.3-0.3-0.7-0.5c-0.4-0.2-2.2-1.3-2.6-1.4c-0.3-0.2-0.6-0.2-0.9,0.1
	c-0.3,0.4-1.1,1.2-1.3,1.4c-0.2,0.2-0.5,0.3-0.8,0c-0.4-0.2-1.6-0.7-3-2.1c-1.1-1.1-1.8-2.4-2-2.8c-0.2-0.4,0-0.6,0.2-0.8
	c0.2-0.2,0.4-0.4,0.6-0.6c0.2-0.2,0.3-0.4,0.4-0.6c0.1-0.2,0.1-0.5,0-0.7c-0.1-0.2-0.7-2.1-1-2.9C6.3,2.7,6,2.8,5.8,2.8
	C5.5,2.7,5.3,2.7,5,2.7c-0.3,0-0.7,0-1.1,0.4C3.6,3.4,2.5,4.3,2.4,6.2C2.3,8.1,3.5,10,3.7,10.3c0.2,0.3,2.4,4.4,6.2,6.2
	c3.8,1.8,3.9,1.3,4.6,1.3c0.7,0,2.4-0.8,2.7-1.6C17.6,15.3,17.6,14.5,17.6,14.3z"/>
</svg>
