<?xml version="1.0" encoding="utf-8"?>
<svg version="1.1" id="Calque_1" xmlns="http://www.w3.org/2000/svg" xmlns:xlink="http://www.w3.org/1999/xlink" x="0px" y="0px"
	 viewBox="0 0 22 22.5" style="enable-background:new 0 0 22 22.5;" xml:space="preserve">
<style type="text/css">
	.st0{fill:#777777;}
	.st1{fill:#C1C1C1;}
</style>
<g>
	<path class="st0" d="M19.3,9.8l-2.1-0.4c-0.1-0.4-0.3-0.8-0.5-1.2l1.2-1.8C18,6.3,18,6.1,17.9,5.9l-1.5-1.5
		c-0.1-0.1-0.4-0.2-0.5-0.1l-1.8,1.2c-0.4-0.2-0.8-0.4-1.2-0.5L12.4,3c0-0.2-0.2-0.4-0.4-0.4H9.9C9.7,2.7,9.5,2.8,9.5,3L9.1,5.1
		C8.7,5.2,8.3,5.4,7.9,5.6L6.1,4.4C6,4.3,5.7,4.3,5.6,4.5L4.1,6C4,6.1,4,6.3,4.1,6.5l1.2,1.8C5.1,8.6,4.9,9,4.8,9.5L2.7,9.8
		c-0.2,0-0.4,0.2-0.4,0.4v2.1c0,0.2,0.2,0.4,0.4,0.4l2.1,0.4c0.1,0.4,0.3,0.8,0.5,1.2l-1.2,1.7C4,16.3,4,16.5,4.1,16.7l1.5,1.5
		c0.1,0.1,0.4,0.2,0.5,0.1L7.9,17c0.4,0.2,0.8,0.4,1.2,0.5l0.4,2.1c0,0.2,0.2,0.4,0.4,0.4H12c0.2,0,0.4-0.2,0.4-0.4l0.4-2.1
		c0.4-0.1,0.8-0.3,1.2-0.5l1.8,1.2c0.2,0.1,0.4,0.1,0.5-0.1l1.5-1.5c0.1-0.1,0.2-0.4,0.1-0.5l-1.2-1.7c0.2-0.4,0.4-0.8,0.5-1.2
		l2.1-0.4c0.2,0,0.4-0.2,0.4-0.4v-2.1C19.6,10.1,19.5,9.9,19.3,9.8z M11,16.5c-2.9,0-5.2-2.3-5.2-5.2S8.1,6.1,11,6.1
		c2.9,0,5.2,2.3,5.2,5.2S13.9,16.5,11,16.5z"/>
	<path class="st1" d="M11,9.3c-1.1,0-1.9,0.9-1.9,1.9s0.9,1.9,1.9,1.9s1.9-0.9,1.9-1.9S12.1,9.3,11,9.3z"/>
</g>
</svg>
