<?xml version="1.0" encoding="iso-8859-1"?>
<!-- Generator: Adobe Illustrator 19.0.0, SVG Export Plug-In . SVG Version: 6.00 Build 0)  -->
<svg version="1.1" id="Capa_1" xmlns="http://www.w3.org/2000/svg" xmlns:xlink="http://www.w3.org/1999/xlink" x="0px" y="0px"
	 viewBox="0 0 447.243 447.243" style="enable-background:new 0 0 447.243 447.243;" xml:space="preserve">
<g>
	<g>
		<path fill="#ff3232" d="M406.101,232.603c-0.978-0.982-2.019-1.899-3.116-2.745c-13.381-8.971-31.276-7.013-42.4,4.64l-88.64,88.32
			c-4.7,4.695-8.641,10.093-11.68,16l-5.12,9.76v-314.4c0.677-16.099-10.332-30.349-26.08-33.76
			c-17.445-2.829-33.881,9.019-36.71,26.465c-0.297,1.83-0.434,3.682-0.41,5.535v315.52l-3.2-6.88
			c-3.183-6.725-7.515-12.843-12.8-18.08l-88.64-88.48c-11.124-11.653-29.019-13.611-42.4-4.64
			c-14.259,10.441-17.355,30.464-6.914,44.724c0.844,1.152,1.764,2.247,2.754,3.276l160,160
			c12.49,12.504,32.751,12.515,45.255,0.025c0.008-0.008,0.017-0.017,0.025-0.025l160-160
			C418.542,265.382,418.577,245.121,406.101,232.603z"/>
	</g>
</g>
<g>
</g>
<g>
</g>
<g>
</g>
<g>
</g>
<g>
</g>
<g>
</g>
<g>
</g>
<g>
</g>
<g>
</g>
<g>
</g>
<g>
</g>
<g>
</g>
<g>
</g>
<g>
</g>
<g>
</g>
</svg>
