<?xml version="1.0" encoding="iso-8859-1"?>
<!-- Generator: Adobe Illustrator 19.0.0, SVG Export Plug-In . SVG Version: 6.00 Build 0)  -->
<svg version="1.1" id="Capa_1" xmlns="http://www.w3.org/2000/svg" xmlns:xlink="http://www.w3.org/1999/xlink" x="0px" y="0px"
	 viewBox="0 0 447.243 447.243" style="enable-background:new 0 0 447.243 447.243;" xml:space="preserve">
<g>
	<g>
		<path fill="#32CD32" d="M409.217,172.662c-0.844-1.152-1.764-2.247-2.754-3.276l-160-160C233.973-3.119,213.712-3.13,201.209,9.36
			c-0.008,0.008-0.017,0.017-0.025,0.025l-160,160c-12.479,12.514-12.451,32.775,0.063,45.255c0.985,0.982,2.033,1.899,3.137,2.745
			c13.381,8.971,31.276,7.013,42.4-4.64l88.64-88.32c4.7-4.695,8.641-10.093,11.68-16l4.32-9.6v314.24
			c-0.607,16.347,10.812,30.689,26.88,33.76c17.445,2.829,33.881-9.019,36.71-26.465c0.297-1.83,0.434-3.682,0.41-5.535V99.305
			l3.2,6.88c3.183,6.725,7.515,12.843,12.8,18.08l88.48,88.48c11.124,11.653,29.019,13.611,42.4,4.64
			C416.563,206.944,419.658,186.921,409.217,172.662z"/>
	</g>
</g>
<g>
</g>
<g>
</g>
<g>
</g>
<g>
</g>
<g>
</g>
<g>
</g>
<g>
</g>
<g>
</g>
<g>
</g>
<g>
</g>
<g>
</g>
<g>
</g>
<g>
</g>
<g>
</g>
<g>
</g>
</svg>
