<?xml version="1.0" encoding="utf-8"?>
<svg version="1.1" id="Calque_1" xmlns="http://www.w3.org/2000/svg" xmlns:xlink="http://www.w3.org/1999/xlink" x="0px" y="0px"
	 viewBox="0 0 58.2 48" style="enable-background:new 0 0 58.2 48;" xml:space="preserve">
<style type="text/css">
	.st0{fill:#FFFFFF;}
	.st1{opacity:0.24;fill:url(#SVGID_1_);}
	.st2{fill:#EFEFEE;}
	.st3{fill:#FAFAF9;}
</style>
<g>
	<path class="st0" d="M29.2,24.1c1.9-2.7,3.7-5.5,5.6-8.2c2.4-3.3,4.9-6.5,8-9.1c4.3-3.5,9.7-5.6,15.3-5.9c0-0.3,0-0.6,0-0.9
		C38.8,0,19.4,0,0,0c0,13.8,0,27.7,0,41.5C0,43.1,0,48,0,48l2.8,0c0,0,3.7-1.7,6-2.9c4.5-2.4,8.4-5.8,11.8-9.5
		C23.7,32,26.5,28.1,29.2,24.1z"/>
	<linearGradient id="SVGID_1_" gradientUnits="userSpaceOnUse" x1="29.5833" y1="48.0001" x2="29.5833" y2="1.0001">
		<stop  offset="0" style="stop-color:#2AC420"/>
		<stop  offset="1" style="stop-color:#2CAD00"/>
	</linearGradient>
	<path class="st1" d="M39.7,10.1L29.6,24C15.2,48,1,48,1,48h57.2V1C47.5,1,39.7,10.1,39.7,10.1z"/>
	<path class="st2" d="M39.7,9.1c-1.5,1.7-2.9,3.5-4.1,5.3c-4.7,6.7-8.8,13.8-14.2,20c-2.6,3-5.6,5.8-8.9,8c-3,2-10,4.1-10,4.1L0,47
		v1c0,0,9.7,0,11.4,0c3.5,0,7.1-1,10.6-1c6.9,0,13.9,0,20.8,0c5.1,0,10.3,0,15.4,0c0-15.7,0-31.4,0-47c-5.4,0.3-10.6,2.3-14.8,5.7
		C42,6.7,40.8,7.9,39.7,9.1z"/>
</g>
<path class="st3" d="M39.8,10.1c-1.5,1.7-2.8,3.5-4.1,5.3c-4.7,6.7-8.8,13.8-14.1,20c-2.6,3-5.6,5.8-8.9,8c-3,2-11,4.7-11,4.7l0,0
	c0,0,4.4,0,5,0c1.7,0,3.4,0,5.2,0c3.4,0,6.9,0,10.3,0c6.9,0,13.8,0,20.7,0c5.1,0,10.2,0,15.3,0c0-15.7,0-31.4,0-47
	c-5.3,0.3-10.6,2.3-14.7,5.7C42.1,7.7,40.9,8.8,39.8,10.1z"/>
</svg>
