<?xml version="1.0" encoding="utf-8"?>
<!-- Generator: Adobe Illustrator 22.1.0, SVG Export Plug-In . SVG Version: 6.00 Build 0)  -->
<svg version="1.1" id="Calque_1" xmlns="http://www.w3.org/2000/svg" xmlns:xlink="http://www.w3.org/1999/xlink" x="0px" y="0px"
	 viewBox="0 0 29.3 29.5" style="enable-background:new 0 0 29.3 29.5;" xml:space="preserve">
<style type="text/css">
	.st0{fill:url(#LOGO_1_);}
</style>
<linearGradient id="LOGO_1_" gradientUnits="userSpaceOnUse" x1="1.0793" y1="841.9848" x2="1.0793" y2="841.8422" gradientTransform="matrix(168 0 0 -168 -167 141456.1094)">
	<stop  offset="0" style="stop-color:#2AC420"/>
	<stop  offset="1" style="stop-color:#2CAD00"/>
</linearGradient>
<path id="LOGO" class="st0" d="M14.3,26.6c-6.6,0-12-5.4-12-12s5.4-12,12-12s12,5.4,12,12S20.9,26.6,14.3,26.6z M14.3,4.4
	C8.7,4.4,4,9,4,14.6s4.6,10.3,10.3,10.3s10.3-4.6,10.3-10.3S20,4.4,14.3,4.4z M19.8,17c-0.3-0.3-0.6-0.4-0.9-0.6
	c-0.5-0.2-1.2-0.6-1.8-0.3c-0.2,0.1-0.3,0.3-0.5,0.5c-0.2,0.2-0.4,0.4-0.7,0.6c-1.2,0.6-2.8,0.4-3.8-0.6c-0.6-0.6-0.9-1.4-0.9-2.3
	c0-0.6,0.2-1.3,0.6-1.8c0.2-0.2,0.4-0.4,0.6-0.6c0.2-0.2,0.3-0.4,0.3-0.7c0-0.4-0.2-0.7-0.3-1c-0.1-0.3-0.3-0.6-0.5-0.9
	c-0.2-0.3-0.5-0.5-0.8-0.7c-0.1,0-0.3-0.1-0.4,0c-0.2,0-0.3,0.2-0.5,0.3c-0.6,0.5-1.8,4.2-1.4,5.3c0.5,1.3,1.4,2.4,2.4,3.3
	c0.6,0.6,1.3,1.1,2,1.6c0.9,0.6,2,1,3.1,1.2c0.8,0.1,1.6,0,2.2-0.4c0.3-0.2,0.5-0.4,0.8-0.6c0.3-0.3,0.5-0.5,0.8-0.8
	c0.1-0.2,0.3-0.3,0.4-0.6C20.3,17.5,20,17.2,19.8,17z"/>
</svg>
